<mxfile host="app.diagrams.net" agent="Mozilla/5.0 (Windows NT 10.0; Win64; x64) AppleWebKit/537.36 (KHTML, like Gecko) Chrome/132.0.0.0 Safari/537.36" version="26.0.6">
  <diagram name="Page-1" id="CjE_pXgrkulJ-vMswxC5">
    <mxGraphModel dx="1086" dy="527" grid="1" gridSize="10" guides="1" tooltips="1" connect="1" arrows="1" fold="1" page="1" pageScale="1" pageWidth="850" pageHeight="1100" math="0" shadow="0">
      <root>
        <mxCell id="0" />
        <mxCell id="1" parent="0" />
        <mxCell id="GyMFLsU6kUtkUXME5Oty-1" value="" style="whiteSpace=wrap;html=1;aspect=fixed;" vertex="1" parent="1">
          <mxGeometry x="210" y="100" width="630" height="630" as="geometry" />
        </mxCell>
        <mxCell id="GyMFLsU6kUtkUXME5Oty-2" value="&lt;font style=&quot;font-size: 24px;&quot;&gt;&lt;b style=&quot;&quot;&gt;Wallet Systerm&lt;/b&gt;&lt;/font&gt;" style="text;html=1;align=center;verticalAlign=middle;whiteSpace=wrap;rounded=0;" vertex="1" parent="1">
          <mxGeometry x="436.25" y="110" width="197.5" height="30" as="geometry" />
        </mxCell>
        <mxCell id="GyMFLsU6kUtkUXME5Oty-4" value="&lt;font style=&quot;font-size: 14px;&quot;&gt;&lt;b&gt;User&lt;/b&gt;&lt;/font&gt;" style="shape=umlActor;verticalLabelPosition=bottom;verticalAlign=top;html=1;outlineConnect=0;" vertex="1" parent="1">
          <mxGeometry x="100" y="320" width="30" height="60" as="geometry" />
        </mxCell>
        <mxCell id="GyMFLsU6kUtkUXME5Oty-5" value="&lt;font style=&quot;font-size: 14px;&quot;&gt;&lt;b&gt;Wallet&lt;/b&gt;&lt;/font&gt;" style="shape=umlActor;verticalLabelPosition=bottom;verticalAlign=top;html=1;outlineConnect=0;" vertex="1" parent="1">
          <mxGeometry x="900" y="320" width="50" height="60" as="geometry" />
        </mxCell>
        <mxCell id="GyMFLsU6kUtkUXME5Oty-11" value="" style="ellipse;whiteSpace=wrap;html=1;" vertex="1" parent="1">
          <mxGeometry x="475" y="200" width="120" height="80" as="geometry" />
        </mxCell>
        <mxCell id="GyMFLsU6kUtkUXME5Oty-12" value="" style="ellipse;whiteSpace=wrap;html=1;" vertex="1" parent="1">
          <mxGeometry x="475" y="330" width="120" height="80" as="geometry" />
        </mxCell>
        <mxCell id="GyMFLsU6kUtkUXME5Oty-14" value="" style="ellipse;whiteSpace=wrap;html=1;" vertex="1" parent="1">
          <mxGeometry x="475" y="440" width="120" height="80" as="geometry" />
        </mxCell>
        <mxCell id="GyMFLsU6kUtkUXME5Oty-16" value="" style="ellipse;whiteSpace=wrap;html=1;" vertex="1" parent="1">
          <mxGeometry x="475" y="550" width="120" height="80" as="geometry" />
        </mxCell>
        <mxCell id="GyMFLsU6kUtkUXME5Oty-24" value="" style="endArrow=none;html=1;rounded=0;entryX=0;entryY=1;entryDx=0;entryDy=0;" edge="1" parent="1" source="GyMFLsU6kUtkUXME5Oty-14" target="GyMFLsU6kUtkUXME5Oty-11">
          <mxGeometry width="50" height="50" relative="1" as="geometry">
            <mxPoint x="740" y="400" as="sourcePoint" />
            <mxPoint x="790" y="350" as="targetPoint" />
            <Array as="points">
              <mxPoint x="110" y="350" />
            </Array>
          </mxGeometry>
        </mxCell>
        <mxCell id="GyMFLsU6kUtkUXME5Oty-26" value="" style="endArrow=none;html=1;rounded=0;exitX=0.071;exitY=0.352;exitDx=0;exitDy=0;exitPerimeter=0;" edge="1" parent="1" source="GyMFLsU6kUtkUXME5Oty-16" target="GyMFLsU6kUtkUXME5Oty-12">
          <mxGeometry width="50" height="50" relative="1" as="geometry">
            <mxPoint x="492" y="472" as="sourcePoint" />
            <mxPoint x="503" y="278" as="targetPoint" />
            <Array as="points">
              <mxPoint x="110" y="350" />
            </Array>
          </mxGeometry>
        </mxCell>
        <mxCell id="GyMFLsU6kUtkUXME5Oty-27" value="" style="endArrow=none;html=1;rounded=0;exitX=0.983;exitY=0.681;exitDx=0;exitDy=0;exitPerimeter=0;" edge="1" parent="1" source="GyMFLsU6kUtkUXME5Oty-12">
          <mxGeometry width="50" height="50" relative="1" as="geometry">
            <mxPoint x="740" y="460" as="sourcePoint" />
            <mxPoint x="900" y="370" as="targetPoint" />
          </mxGeometry>
        </mxCell>
        <mxCell id="GyMFLsU6kUtkUXME5Oty-28" value="" style="endArrow=none;html=1;rounded=0;exitX=1;exitY=0;exitDx=0;exitDy=0;" edge="1" parent="1" source="GyMFLsU6kUtkUXME5Oty-14">
          <mxGeometry width="50" height="50" relative="1" as="geometry">
            <mxPoint x="603" y="394" as="sourcePoint" />
            <mxPoint x="910" y="363" as="targetPoint" />
          </mxGeometry>
        </mxCell>
        <mxCell id="GyMFLsU6kUtkUXME5Oty-29" value="" style="endArrow=none;html=1;rounded=0;exitX=1;exitY=0.5;exitDx=0;exitDy=0;" edge="1" parent="1" source="GyMFLsU6kUtkUXME5Oty-16" target="GyMFLsU6kUtkUXME5Oty-5">
          <mxGeometry width="50" height="50" relative="1" as="geometry">
            <mxPoint x="613" y="404" as="sourcePoint" />
            <mxPoint x="920" y="373" as="targetPoint" />
            <Array as="points" />
          </mxGeometry>
        </mxCell>
        <mxCell id="GyMFLsU6kUtkUXME5Oty-30" value="&lt;font style=&quot;font-size: 18px;&quot;&gt;&lt;b&gt;User Register&lt;/b&gt;&lt;/font&gt;" style="text;html=1;align=center;verticalAlign=middle;whiteSpace=wrap;rounded=0;" vertex="1" parent="1">
          <mxGeometry x="505" y="220" width="60" height="30" as="geometry" />
        </mxCell>
        <mxCell id="GyMFLsU6kUtkUXME5Oty-31" value="&lt;span data-lucid-content=&quot;{&amp;quot;t&amp;quot;:&amp;quot;Check Balance&amp;quot;,&amp;quot;m&amp;quot;:[{&amp;quot;s&amp;quot;:0,&amp;quot;n&amp;quot;:&amp;quot;s&amp;quot;,&amp;quot;v&amp;quot;:24.444444444444446,&amp;quot;e&amp;quot;:13},{&amp;quot;s&amp;quot;:0,&amp;quot;n&amp;quot;:&amp;quot;fc&amp;quot;,&amp;quot;v&amp;quot;:&amp;quot;Bold&amp;quot;,&amp;quot;e&amp;quot;:13},{&amp;quot;s&amp;quot;:0,&amp;quot;n&amp;quot;:&amp;quot;b&amp;quot;,&amp;quot;v&amp;quot;:true,&amp;quot;e&amp;quot;:13},{&amp;quot;s&amp;quot;:0,&amp;quot;n&amp;quot;:&amp;quot;fid&amp;quot;,&amp;quot;v&amp;quot;:5,&amp;quot;e&amp;quot;:13}]}&quot; data-lucid-type=&quot;application/vnd.lucid.text&quot;&gt;&lt;span style=&quot;font-weight:bold;font-size:18.333333333333336px;&quot;&gt;Check Balance&lt;/span&gt;&lt;/span&gt;" style="text;html=1;align=center;verticalAlign=middle;whiteSpace=wrap;rounded=0;" vertex="1" parent="1">
          <mxGeometry x="505" y="350" width="60" height="30" as="geometry" />
        </mxCell>
        <mxCell id="GyMFLsU6kUtkUXME5Oty-33" value="&lt;span style=&quot;font-size: 18.3333px;&quot;&gt;&lt;b&gt;Transfer&amp;nbsp;&lt;/b&gt;&lt;/span&gt;&lt;div&gt;&lt;span style=&quot;font-size: 18.3333px;&quot;&gt;&lt;b&gt;fund&lt;/b&gt;&lt;/span&gt;&lt;/div&gt;" style="text;html=1;align=center;verticalAlign=middle;whiteSpace=wrap;rounded=0;" vertex="1" parent="1">
          <mxGeometry x="505" y="465" width="60" height="30" as="geometry" />
        </mxCell>
        <mxCell id="GyMFLsU6kUtkUXME5Oty-34" value="&lt;span style=&quot;font-size: 18.3333px;&quot;&gt;&lt;b&gt;Make Payment&lt;/b&gt;&lt;/span&gt;&lt;div&gt;&lt;span style=&quot;font-size: 18.3333px;&quot;&gt;&lt;b&gt;&lt;br&gt;&lt;/b&gt;&lt;/span&gt;&lt;/div&gt;" style="text;html=1;align=center;verticalAlign=middle;whiteSpace=wrap;rounded=0;" vertex="1" parent="1">
          <mxGeometry x="510" y="575" width="60" height="30" as="geometry" />
        </mxCell>
      </root>
    </mxGraphModel>
  </diagram>
</mxfile>
